<svg xmlns="http://www.w3.org/2000/svg" xmlns:xlink="http://www.w3.org/1999/xlink" width="375" height="812" viewBox="0 0 375 812"><defs><filter id="a" x="-148.5" y="607.5" width="672" height="347" filterUnits="userSpaceOnUse"><feOffset dy="-6" input="SourceAlpha"/><feGaussianBlur stdDeviation="49.5" result="b"/><feFlood flood-opacity="0.161"/><feComposite operator="in" in2="b"/><feComposite in="SourceGraphic"/></filter><clipPath id="d"><rect width="375" height="812"/></clipPath></defs><g id="c" clip-path="url(#d)"><rect width="375" height="812" fill="#fff"/><rect width="375" height="811" fill="#fdd32a"/><path d="M56,0H319a56,56,0,0,1,56,56V552a0,0,0,0,1,0,0H0a0,0,0,0,1,0,0V56A56,56,0,0,1,56,0Z" transform="translate(0 219)" fill="#fff"/><g transform="matrix(1, 0, 0, 1, 0, 0)" filter="url(#a)"><rect width="375" height="50" transform="translate(0 762)" fill="#fff"/></g><rect width="86" height="29" rx="10" transform="translate(53 771)" fill="#fff6d4"/><g transform="translate(2)"><circle cx="1.459" cy="1.459" r="1.459" transform="translate(62 780)"/><circle cx="1.459" cy="1.459" r="1.459" transform="translate(62 788.082)"/><circle cx="1.459" cy="1.459" r="1.459" transform="translate(70.082 780)"/><circle cx="1.459" cy="1.459" r="1.459" transform="translate(70.082 788.082)"/><text transform="translate(79 792)" fill="#707070" font-size="17" font-family="Quicksand-Regular, Quicksand"><tspan x="0" y="0">Home</tspan></text></g><g transform="translate(265 780)" fill="none" stroke="#000" stroke-width="3"><circle cx="7" cy="7" r="7" stroke="none"/><circle cx="7" cy="7" r="5.5" fill="none"/></g><rect width="21" height="8" rx="4" transform="translate(180 226)" fill="#2d40e8"/><rect width="331" height="137" rx="16" transform="translate(22 62)" fill="#fff"/><g transform="translate(270 89)" fill="#fff" stroke="#707070" stroke-width="1"><circle cx="24.5" cy="24.5" r="24.5" stroke="none"/><circle cx="24.5" cy="24.5" r="24" fill="none"/></g><text transform="translate(281 119)" font-size="14" font-family="Quicksand-Bold, Quicksand" font-weight="700"><tspan x="0" y="0">49</tspan></text><text transform="translate(301 118)" font-size="11" font-family="Quicksand-Regular, Quicksand"><tspan x="0" y="0">%</tspan></text><g transform="translate(270 89)" fill="none" stroke="#fdd226" stroke-width="2"><circle cx="24.5" cy="24.5" r="24.5" stroke="none"/><circle cx="24.5" cy="24.5" r="23.5" fill="none"/></g><text transform="translate(60 119)" font-size="14" font-family="Quicksand-Regular, Quicksand"><tspan x="0" y="0">VTU NOTES, ALL SEMESTER</tspan></text><rect width="66" height="22" rx="11" transform="translate(259 163)" fill="#2d40e8"/><text transform="translate(273 179)" fill="#fff" font-size="12" font-family="Quicksand-Regular, Quicksand"><tspan x="0" y="0">Details</tspan></text><rect width="66" height="22" rx="11" transform="translate(54 162)" fill="#fff6d4"/><text transform="translate(84 178)" font-size="12" font-family="Quicksand-Regular, Quicksand"><tspan x="0" y="0">Zip</tspan></text><g transform="translate(71 170)" fill="none" stroke="#000" stroke-width="1"><rect width="8" height="8" stroke="none"/><rect x="0.5" y="0.5" width="7" height="7" fill="none"/></g><rect width="46" height="42" rx="21" transform="translate(297 282)" fill="#2d40e8"/><g transform="translate(32 282)" fill="#fff" stroke="#707070" stroke-width="1"><rect width="263" height="42" rx="21" stroke="none"/><rect x="0.5" y="0.5" width="262" height="41" rx="20.5" fill="none"/></g><text transform="translate(52 310)" fill="#707070" font-size="17" font-family="Quicksand-Regular, Quicksand"><tspan x="0" y="0">https://fileurl.com/filename?</tspan></text><g transform="translate(7 -124)"><circle cx="5.29" cy="5.29" r="5.29" transform="translate(306 420)" fill="#fff"/><path d="M755.275,424.573l4.429,5.341,2.174-2.174-5.04-4.991Z" transform="translate(-441.158 5.02)" fill="#fff"/></g><g transform="translate(-3)"><rect width="183" height="42" rx="18" transform="translate(99 691)" fill="#fdd32a"/><text transform="translate(151 719)" font-size="17" font-family="Quicksand-Regular, Quicksand"><tspan x="0" y="0">Download</tspan></text></g><rect width="311" height="16" rx="8" transform="translate(32 445)" fill="#09313d"/><rect width="124" height="16" rx="8" transform="translate(32 445)" fill="#79bcd1"/><path d="M5.928,0,11.483,9.7H0Z" transform="translate(27 460.996)" fill="rgba(200,36,36,0.47)"/><path d="M5.928,0,11.483,9.7H0Z" transform="translate(148 460.996)" fill="rgba(200,36,36,0.47)"/><circle cx="22" cy="22" r="22" transform="translate(166 620)" fill="#2d40e8"/><path d="M1072.335,650.525c-1.332,9.988-3-12.984,5.66-16.646l-3-4.994,11.985,4.994-4.661,7.324-2.663-4.994S1073.666,640.538,1072.335,650.525Z" transform="translate(-891.257 1.114)" fill="#fff"/><text transform="translate(98 607)" font-size="17" font-family="Quicksand-Regular, Quicksand"><tspan x="0" y="0">Share with your friends</tspan></text></g></svg>