<svg xmlns="http://www.w3.org/2000/svg" xmlns:xlink="http://www.w3.org/1999/xlink" width="375" height="1013" viewBox="0 0 375 1013"><defs><filter id="a" x="-148.5" y="607.5" width="672" height="347" filterUnits="userSpaceOnUse"><feOffset dy="-6" input="SourceAlpha"/><feGaussianBlur stdDeviation="49.5" result="b"/><feFlood flood-opacity="0.161"/><feComposite operator="in" in2="b"/><feComposite in="SourceGraphic"/></filter><clipPath id="d"><rect width="375" height="1013"/></clipPath></defs><g id="c" clip-path="url(#d)"><rect width="375" height="1013" fill="#fff"/><rect width="375" height="1013" fill="#fdd32a"/><g transform="translate(0 161)"><rect width="331" height="137" rx="16" transform="translate(22 62)" fill="#fff"/><g transform="translate(270 89)" fill="#fff" stroke="#707070" stroke-width="1"><circle cx="24.5" cy="24.5" r="24.5" stroke="none"/><circle cx="24.5" cy="24.5" r="24" fill="none"/></g><text transform="translate(281 119)" font-size="14" font-family="Quicksand-Bold, Quicksand" font-weight="700"><tspan x="0" y="0">49</tspan></text><text transform="translate(301 118)" font-size="11" font-family="Quicksand-Regular, Quicksand"><tspan x="0" y="0">%</tspan></text><g transform="translate(270 89)" fill="none" stroke="#fdd226" stroke-width="2"><circle cx="24.5" cy="24.5" r="24.5" stroke="none"/><circle cx="24.5" cy="24.5" r="23.5" fill="none"/></g><text transform="translate(60 119)" font-size="14" font-family="Quicksand-Regular, Quicksand"><tspan x="0" y="0">VTU NOTES, ALL SEMESTER</tspan></text><rect width="66" height="22" rx="11" transform="translate(259 163)" fill="#2d40e8"/><text transform="translate(273 179)" fill="#fff" font-size="12" font-family="Quicksand-Regular, Quicksand"><tspan x="0" y="0">Details</tspan></text><rect width="66" height="22" rx="11" transform="translate(54 162)" fill="#fff6d4"/><text transform="translate(84 178)" font-size="12" font-family="Quicksand-Regular, Quicksand"><tspan x="0" y="0">Zip</tspan></text><g transform="translate(71 170)" fill="none" stroke="#000" stroke-width="1"><rect width="8" height="8" stroke="none"/><rect x="0.5" y="0.5" width="7" height="7" fill="none"/></g></g><g transform="translate(0 323)"><rect width="331" height="137" rx="16" transform="translate(22 62)" fill="#fff"/><g transform="translate(270 89)" fill="#fff" stroke="#707070" stroke-width="1"><circle cx="24.5" cy="24.5" r="24.5" stroke="none"/><circle cx="24.5" cy="24.5" r="24" fill="none"/></g><text transform="translate(281 119)" font-size="14" font-family="Quicksand-Bold, Quicksand" font-weight="700"><tspan x="0" y="0">49</tspan></text><text transform="translate(301 118)" font-size="11" font-family="Quicksand-Regular, Quicksand"><tspan x="0" y="0">%</tspan></text><g transform="translate(270 89)" fill="none" stroke="#fdd226" stroke-width="2"><circle cx="24.5" cy="24.5" r="24.5" stroke="none"/><circle cx="24.5" cy="24.5" r="23.5" fill="none"/></g><text transform="translate(60 119)" font-size="14" font-family="Quicksand-Regular, Quicksand"><tspan x="0" y="0">VTU NOTES, ALL SEMESTER</tspan></text><rect width="66" height="22" rx="11" transform="translate(259 163)" fill="#2d40e8"/><text transform="translate(273 179)" fill="#fff" font-size="12" font-family="Quicksand-Regular, Quicksand"><tspan x="0" y="0">Details</tspan></text><rect width="66" height="22" rx="11" transform="translate(54 162)" fill="#fff6d4"/><text transform="translate(84 178)" font-size="12" font-family="Quicksand-Regular, Quicksand"><tspan x="0" y="0">Zip</tspan></text><g transform="translate(71 170)" fill="none" stroke="#000" stroke-width="1"><rect width="8" height="8" stroke="none"/><rect x="0.5" y="0.5" width="7" height="7" fill="none"/></g></g><g transform="translate(0 485)"><rect width="331" height="137" rx="16" transform="translate(22 62)" fill="#fff"/><g transform="translate(270 89)" fill="#fff" stroke="#707070" stroke-width="1"><circle cx="24.5" cy="24.5" r="24.5" stroke="none"/><circle cx="24.5" cy="24.5" r="24" fill="none"/></g><text transform="translate(281 119)" font-size="14" font-family="Quicksand-Bold, Quicksand" font-weight="700"><tspan x="0" y="0">49</tspan></text><text transform="translate(301 118)" font-size="11" font-family="Quicksand-Regular, Quicksand"><tspan x="0" y="0">%</tspan></text><g transform="translate(270 89)" fill="none" stroke="#fdd226" stroke-width="2"><circle cx="24.5" cy="24.5" r="24.5" stroke="none"/><circle cx="24.5" cy="24.5" r="23.5" fill="none"/></g><text transform="translate(60 119)" font-size="14" font-family="Quicksand-Regular, Quicksand"><tspan x="0" y="0">VTU NOTES, ALL SEMESTER</tspan></text><rect width="66" height="22" rx="11" transform="translate(259 163)" fill="#2d40e8"/><text transform="translate(273 179)" fill="#fff" font-size="12" font-family="Quicksand-Regular, Quicksand"><tspan x="0" y="0">Details</tspan></text><rect width="66" height="22" rx="11" transform="translate(54 162)" fill="#fff6d4"/><text transform="translate(84 178)" font-size="12" font-family="Quicksand-Regular, Quicksand"><tspan x="0" y="0">Zip</tspan></text><g transform="translate(71 170)" fill="none" stroke="#000" stroke-width="1"><rect width="8" height="8" stroke="none"/><rect x="0.5" y="0.5" width="7" height="7" fill="none"/></g></g><g transform="translate(0 6)"><rect width="331" height="137" rx="16" transform="translate(22 62)" fill="#fff"/><g transform="translate(270 89)" fill="#fff" stroke="#707070" stroke-width="1"><circle cx="24.5" cy="24.5" r="24.5" stroke="none"/><circle cx="24.5" cy="24.5" r="24" fill="none"/></g><text transform="translate(281 119)" font-size="14" font-family="Quicksand-Bold, Quicksand" font-weight="700"><tspan x="0" y="0">49</tspan></text><text transform="translate(301 118)" font-size="11" font-family="Quicksand-Regular, Quicksand"><tspan x="0" y="0">%</tspan></text><g transform="translate(270 89)" fill="none" stroke="#fdd226" stroke-width="2"><circle cx="24.5" cy="24.5" r="24.5" stroke="none"/><circle cx="24.5" cy="24.5" r="23.5" fill="none"/></g><text transform="translate(60 119)" font-size="14" font-family="Quicksand-Regular, Quicksand"><tspan x="0" y="0">VTU NOTES, ALL SEMESTER</tspan></text><rect width="66" height="22" rx="11" transform="translate(259 163)" fill="#2d40e8"/><text transform="translate(273 179)" fill="#fff" font-size="12" font-family="Quicksand-Regular, Quicksand"><tspan x="0" y="0">Details</tspan></text><rect width="66" height="22" rx="11" transform="translate(54 162)" fill="#fff6d4"/><text transform="translate(84 178)" font-size="12" font-family="Quicksand-Regular, Quicksand"><tspan x="0" y="0">Zip</tspan></text><g transform="translate(71 170)" fill="none" stroke="#000" stroke-width="1"><rect width="8" height="8" stroke="none"/><rect x="0.5" y="0.5" width="7" height="7" fill="none"/></g></g><g transform="translate(0 323)"><rect width="331" height="137" rx="16" transform="translate(22 62)" fill="#fff"/><g transform="translate(270 89)" fill="#fff" stroke="#707070" stroke-width="1"><circle cx="24.5" cy="24.5" r="24.5" stroke="none"/><circle cx="24.5" cy="24.5" r="24" fill="none"/></g><text transform="translate(281 119)" font-size="14" font-family="Quicksand-Bold, Quicksand" font-weight="700"><tspan x="0" y="0">49</tspan></text><text transform="translate(301 118)" font-size="11" font-family="Quicksand-Regular, Quicksand"><tspan x="0" y="0">%</tspan></text><g transform="translate(270 89)" fill="none" stroke="#fdd226" stroke-width="2"><circle cx="24.5" cy="24.5" r="24.5" stroke="none"/><circle cx="24.5" cy="24.5" r="23.5" fill="none"/></g><text transform="translate(60 119)" font-size="14" font-family="Quicksand-Regular, Quicksand"><tspan x="0" y="0">VTU NOTES, ALL SEMESTER</tspan></text><rect width="66" height="22" rx="11" transform="translate(259 163)" fill="#2d40e8"/><text transform="translate(273 179)" fill="#fff" font-size="12" font-family="Quicksand-Regular, Quicksand"><tspan x="0" y="0">Details</tspan></text><rect width="66" height="22" rx="11" transform="translate(54 162)" fill="#fff6d4"/><text transform="translate(84 178)" font-size="12" font-family="Quicksand-Regular, Quicksand"><tspan x="0" y="0">Zip</tspan></text><g transform="translate(71 170)" fill="none" stroke="#000" stroke-width="1"><rect width="8" height="8" stroke="none"/><rect x="0.5" y="0.5" width="7" height="7" fill="none"/></g></g><g transform="translate(0 485)"><rect width="331" height="137" rx="16" transform="translate(22 62)" fill="#fff"/><g transform="translate(270 89)" fill="#fff" stroke="#707070" stroke-width="1"><circle cx="24.5" cy="24.5" r="24.5" stroke="none"/><circle cx="24.5" cy="24.5" r="24" fill="none"/></g><text transform="translate(281 119)" font-size="14" font-family="Quicksand-Bold, Quicksand" font-weight="700"><tspan x="0" y="0">49</tspan></text><text transform="translate(301 118)" font-size="11" font-family="Quicksand-Regular, Quicksand"><tspan x="0" y="0">%</tspan></text><g transform="translate(270 89)" fill="none" stroke="#fdd226" stroke-width="2"><circle cx="24.5" cy="24.5" r="24.5" stroke="none"/><circle cx="24.5" cy="24.5" r="23.5" fill="none"/></g><text transform="translate(60 119)" font-size="14" font-family="Quicksand-Regular, Quicksand"><tspan x="0" y="0">VTU NOTES, ALL SEMESTER</tspan></text><rect width="66" height="22" rx="11" transform="translate(259 163)" fill="#2d40e8"/><text transform="translate(273 179)" fill="#fff" font-size="12" font-family="Quicksand-Regular, Quicksand"><tspan x="0" y="0">Details</tspan></text><rect width="66" height="22" rx="11" transform="translate(54 162)" fill="#fff6d4"/><text transform="translate(84 178)" font-size="12" font-family="Quicksand-Regular, Quicksand"><tspan x="0" y="0">Zip</tspan></text><g transform="translate(71 170)" fill="none" stroke="#000" stroke-width="1"><rect width="8" height="8" stroke="none"/><rect x="0.5" y="0.5" width="7" height="7" fill="none"/></g></g><g transform="translate(0 485)"><rect width="331" height="137" rx="16" transform="translate(22 62)" fill="#fff"/><g transform="translate(270 89)" fill="#fff" stroke="#707070" stroke-width="1"><circle cx="24.5" cy="24.5" r="24.5" stroke="none"/><circle cx="24.5" cy="24.5" r="24" fill="none"/></g><text transform="translate(281 119)" font-size="14" font-family="Quicksand-Bold, Quicksand" font-weight="700"><tspan x="0" y="0">49</tspan></text><text transform="translate(301 118)" font-size="11" font-family="Quicksand-Regular, Quicksand"><tspan x="0" y="0">%</tspan></text><g transform="translate(270 89)" fill="none" stroke="#fdd226" stroke-width="2"><circle cx="24.5" cy="24.5" r="24.5" stroke="none"/><circle cx="24.5" cy="24.5" r="23.5" fill="none"/></g><text transform="translate(60 119)" font-size="14" font-family="Quicksand-Regular, Quicksand"><tspan x="0" y="0">VTU NOTES, ALL SEMESTER</tspan></text><rect width="66" height="22" rx="11" transform="translate(259 163)" fill="#2d40e8"/><text transform="translate(273 179)" fill="#fff" font-size="12" font-family="Quicksand-Regular, Quicksand"><tspan x="0" y="0">Details</tspan></text><rect width="66" height="22" rx="11" transform="translate(54 162)" fill="#fff6d4"/><text transform="translate(84 178)" font-size="12" font-family="Quicksand-Regular, Quicksand"><tspan x="0" y="0">Zip</tspan></text><g transform="translate(71 170)" fill="none" stroke="#000" stroke-width="1"><rect width="8" height="8" stroke="none"/><rect x="0.5" y="0.5" width="7" height="7" fill="none"/></g></g><g transform="translate(0 647)"><rect width="331" height="137" rx="16" transform="translate(22 62)" fill="#fff"/><g transform="translate(270 89)" fill="#fff" stroke="#707070" stroke-width="1"><circle cx="24.5" cy="24.5" r="24.5" stroke="none"/><circle cx="24.5" cy="24.5" r="24" fill="none"/></g><text transform="translate(281 119)" font-size="14" font-family="Quicksand-Bold, Quicksand" font-weight="700"><tspan x="0" y="0">49</tspan></text><text transform="translate(301 118)" font-size="11" font-family="Quicksand-Regular, Quicksand"><tspan x="0" y="0">%</tspan></text><g transform="translate(270 89)" fill="none" stroke="#fdd226" stroke-width="2"><circle cx="24.5" cy="24.5" r="24.5" stroke="none"/><circle cx="24.5" cy="24.5" r="23.5" fill="none"/></g><text transform="translate(60 119)" font-size="14" font-family="Quicksand-Regular, Quicksand"><tspan x="0" y="0">VTU NOTES, ALL SEMESTER</tspan></text><rect width="66" height="22" rx="11" transform="translate(259 163)" fill="#2d40e8"/><text transform="translate(273 179)" fill="#fff" font-size="12" font-family="Quicksand-Regular, Quicksand"><tspan x="0" y="0">Details</tspan></text><rect width="66" height="22" rx="11" transform="translate(54 162)" fill="#fff6d4"/><text transform="translate(84 178)" font-size="12" font-family="Quicksand-Regular, Quicksand"><tspan x="0" y="0">Zip</tspan></text><g transform="translate(71 170)" fill="none" stroke="#000" stroke-width="1"><rect width="8" height="8" stroke="none"/><rect x="0.5" y="0.5" width="7" height="7" fill="none"/></g></g><g transform="translate(-1930 -259)"><g transform="translate(1930 1055)"><rect width="331" height="137" rx="16" transform="translate(22 62)" fill="#fff"/><g transform="translate(270 89)" fill="#fff" stroke="#707070" stroke-width="1"><circle cx="24.5" cy="24.5" r="24.5" stroke="none"/><circle cx="24.5" cy="24.5" r="24" fill="none"/></g><text transform="translate(281 119)" font-size="14" font-family="Quicksand-Bold, Quicksand" font-weight="700"><tspan x="0" y="0">49</tspan></text><text transform="translate(301 118)" font-size="11" font-family="Quicksand-Regular, Quicksand"><tspan x="0" y="0">%</tspan></text><g transform="translate(270 89)" fill="none" stroke="#fdd226" stroke-width="2"><circle cx="24.5" cy="24.5" r="24.5" stroke="none"/><circle cx="24.5" cy="24.5" r="23.5" fill="none"/></g><text transform="translate(60 119)" font-size="14" font-family="Quicksand-Regular, Quicksand"><tspan x="0" y="0">VTU NOTES, ALL SEMESTER</tspan></text><rect width="66" height="22" rx="11" transform="translate(259 163)" fill="#2d40e8"/><text transform="translate(273 179)" fill="#fff" font-size="12" font-family="Quicksand-Regular, Quicksand"><tspan x="0" y="0">Details</tspan></text><rect width="66" height="22" rx="11" transform="translate(54 162)" fill="#fff6d4"/><text transform="translate(84 178)" font-size="12" font-family="Quicksand-Regular, Quicksand"><tspan x="0" y="0">Zip</tspan></text><g transform="translate(71 170)" fill="none" stroke="#000" stroke-width="1"><rect width="8" height="8" stroke="none"/><rect x="0.5" y="0.5" width="7" height="7" fill="none"/></g></g><g transform="matrix(1, 0, 0, 1, 1930, 259)" filter="url(#a)"><rect width="375" height="50" transform="translate(0 762)" fill="#fff"/></g><g transform="translate(1930 259)"><path d="M56,0H319a56,56,0,0,1,56,56V66a0,0,0,0,1,0,0H0a0,0,0,0,1,0,0V56A56,56,0,0,1,56,0Z" transform="translate(0 696)" fill="#fff"/><rect width="86" height="29" rx="10" transform="translate(53 771)" fill="#fff6d4"/><g transform="translate(2)"><circle cx="1.459" cy="1.459" r="1.459" transform="translate(62 780)"/><circle cx="1.459" cy="1.459" r="1.459" transform="translate(62 788.082)"/><circle cx="1.459" cy="1.459" r="1.459" transform="translate(70.082 780)"/><circle cx="1.459" cy="1.459" r="1.459" transform="translate(70.082 788.082)"/><text transform="translate(79 792)" fill="#707070" font-size="17" font-family="Quicksand-Regular, Quicksand"><tspan x="0" y="0">Home</tspan></text></g><g transform="translate(265 780)" fill="none" stroke="#000" stroke-width="3"><circle cx="7" cy="7" r="7" stroke="none"/><circle cx="7" cy="7" r="5.5" fill="none"/></g><rect width="21" height="8" rx="4" transform="translate(180 703)" fill="#2d40e8"/><text transform="translate(153 746)" fill="#707070" font-size="17" font-family="Quicksand-Regular, Quicksand"><tspan x="0" y="0">Add URL</tspan></text></g></g></g></svg>